<?xml version="1.0" standalone="no"?>
<!DOCTYPE svg PUBLIC "-//W3C//DTD SVG 20010904//EN"
 "http://www.w3.org/TR/2001/REC-SVG-20010904/DTD/svg10.dtd">
<svg version="1.0" xmlns="http://www.w3.org/2000/svg"
 width="1536.000000pt" height="990.000000pt" viewBox="0 0 1536.000000 990.000000"
 preserveAspectRatio="xMidYMid meet">
<metadata>
Created by potrace 1.16, written by Peter Selinger 2001-2019
</metadata>
<g transform="translate(0.000000,990.000000) scale(0.100000,-0.100000)"
fill="#000000" stroke="none">
<path d="M11978 9890 c-253 -29 -560 -233 -742 -495 -56 -80 -135 -240 -165
-335 -16 -50 -35 -81 -80 -130 -95 -106 -238 -288 -308 -393 -36 -54 -73 -101
-82 -106 -27 -15 -156 -31 -245 -31 -80 0 -287 29 -606 85 -74 13 -187 31
-250 40 -63 9 -188 27 -278 41 -271 41 -681 55 -1022 34 -91 -6 -307 -24 -480
-40 -173 -16 -344 -32 -380 -36 -69 -6 -506 -89 -780 -149 -240 -52 -521 -130
-895 -249 -321 -102 -464 -150 -825 -276 -794 -277 -1333 -453 -1582 -515
-293 -74 -285 -73 -759 -81 l-434 -7 -65 -32 -65 -32 -285 24 c-195 17 -380
25 -585 27 -165 2 -351 9 -413 15 -63 6 -189 12 -280 13 -170 2 -212 -6 -212
-37 0 -21 79 -77 193 -136 54 -28 97 -52 95 -55 -2 -2 -42 1 -89 6 -156 18
-297 6 -341 -30 -21 -17 -21 -20 -8 -45 24 -46 96 -92 208 -135 59 -23 160
-61 225 -86 l117 -46 0 -34 c0 -50 24 -89 67 -109 48 -23 224 -77 344 -106 52
-12 98 -25 102 -29 12 -10 -79 -39 -333 -104 -380 -99 -580 -153 -586 -159
-16 -16 15 -43 153 -135 l148 -99 425 -67 c234 -37 457 -72 495 -77 265 -38
713 -117 977 -173 272 -58 538 -147 933 -312 96 -40 208 -78 280 -95 101 -25
502 -118 1345 -314 622 -145 783 -184 799 -195 10 -6 -55 -99 -250 -356 -299
-397 -344 -454 -459 -579 -129 -142 -143 -181 -160 -450 -13 -219 -18 -268
-45 -510 -14 -115 -29 -259 -35 -320 -6 -60 -22 -204 -35 -320 -13 -115 -34
-295 -45 -400 -23 -211 -62 -468 -86 -559 -8 -33 -30 -89 -49 -126 -32 -64
-35 -67 -112 -102 -214 -99 -250 -116 -272 -135 -23 -19 -24 -22 -11 -52 27
-67 58 -72 223 -40 59 12 109 20 112 18 2 -3 27 -103 54 -223 59 -254 74 -286
161 -344 98 -66 416 -183 455 -168 14 5 16 14 11 48 -9 53 -20 65 -124 136
-62 42 -79 58 -64 60 10 2 85 -6 166 -17 156 -22 266 -27 266 -11 0 14 -48 57
-115 100 -132 87 -224 152 -272 194 -28 23 -63 52 -78 63 l-28 20 12 184 c26
409 68 852 111 1194 16 127 36 300 45 385 27 268 71 496 136 700 17 52 50 177
74 276 54 224 67 258 146 387 127 208 550 817 568 817 3 0 39 -9 78 -20 140
-39 177 -62 309 -190 170 -165 266 -210 562 -264 74 -14 136 -26 138 -29 4 -4
-33 -237 -86 -542 -44 -254 -80 -527 -80 -610 0 -96 31 -212 165 -630 58 -181
136 -427 171 -545 68 -222 220 -818 249 -973 28 -149 4 -221 -100 -313 -152
-132 -167 -147 -152 -156 15 -8 124 -17 522 -43 127 -8 285 -22 353 -31 127
-16 152 -15 152 9 0 23 -31 44 -115 79 -108 45 -108 62 -6 133 41 28 76 56 79
63 6 19 -32 14 -90 -13 -82 -38 -115 -42 -143 -15 -28 26 -21 9 -134 327 -102
285 -152 460 -320 1133 -115 458 -120 483 -141 685 -26 264 -43 364 -75 453
-43 119 -35 280 35 773 46 316 47 320 133 339 51 11 720 204 1112 321 267 80
723 231 865 286 242 95 613 288 925 483 77 48 158 97 180 110 120 70 486 322
568 391 53 44 140 130 193 192 136 159 345 439 421 565 113 187 274 524 352
737 195 526 226 589 353 711 79 76 118 96 288 150 74 24 181 59 238 79 181 64
241 75 391 75 75 0 177 -7 227 -15 183 -29 652 -154 1449 -385 76 -22 147 -40
157 -40 32 0 116 49 123 71 4 12 0 40 -10 66 -14 35 -32 55 -89 97 -84 63
-166 109 -221 126 -107 34 -392 158 -1163 508 -68 30 -148 73 -179 94 -30 21
-81 52 -113 68 -32 16 -76 50 -100 77 -52 60 -117 187 -160 316 -37 112 -106
215 -220 326 -108 106 -255 181 -535 271 -97 32 -105 33 -305 36 -113 1 -239
-1 -282 -6z"/>
<path d="M6966 21 c-4 -5 -2 -12 3 -15 5 -4 12 -2 15 3 4 5 2 12 -3 15 -5 4
-12 2 -15 -3z"/>
</g>
</svg>
