<?xml version="1.0" standalone="no"?>
<!DOCTYPE svg PUBLIC "-//W3C//DTD SVG 20010904//EN"
 "http://www.w3.org/TR/2001/REC-SVG-20010904/DTD/svg10.dtd">
<svg version="1.0" xmlns="http://www.w3.org/2000/svg"
 width="1536.000000pt" height="933.000000pt" viewBox="0 0 1536.000000 933.000000"
 preserveAspectRatio="xMidYMid meet">
<metadata>
Created by potrace 1.16, written by Peter Selinger 2001-2019
</metadata>
<g transform="translate(0.000000,933.000000) scale(0.100000,-0.100000)"
fill="#000000" stroke="none">
<path d="M5216 9315 c-116 -19 -314 -87 -518 -178 -383 -170 -491 -282 -602
-624 -47 -146 -90 -319 -121 -488 -28 -153 -39 -195 -64 -238 -9 -16 -133
-120 -276 -232 -246 -192 -473 -373 -1461 -1166 -791 -635 -1347 -1056 -1814
-1374 -171 -117 -290 -226 -325 -301 -31 -66 -42 -129 -25 -149 18 -22 76 -18
141 9 70 28 133 72 754 525 1488 1084 2248 1614 2633 1835 158 90 275 144 417
192 99 33 123 38 240 42 165 6 234 -7 270 -50 33 -39 28 -76 -20 -163 -18 -33
-58 -105 -89 -160 -159 -284 -192 -557 -115 -945 41 -202 103 -353 273 -658
175 -313 359 -573 607 -856 382 -437 753 -673 1555 -989 347 -137 698 -214
1129 -248 184 -15 523 -6 655 16 52 9 104 14 116 11 66 -17 113 -95 146 -247
20 -93 23 -130 22 -354 0 -181 -5 -286 -18 -378 -35 -257 -76 -332 -366 -672
-234 -274 -287 -338 -477 -576 -217 -271 -275 -337 -356 -407 -151 -130 -401
-220 -632 -226 -133 -4 -187 -19 -269 -75 -54 -37 -79 -71 -70 -95 3 -9 31
-23 62 -32 47 -14 91 -16 271 -11 190 4 260 11 573 56 383 55 440 59 533 36
111 -26 187 -17 253 32 36 27 42 61 14 86 -9 9 -49 30 -87 47 -130 58 -139 64
-164 110 -80 145 11 298 469 785 527 562 683 807 731 1149 21 153 8 188 -183
462 -113 164 -142 221 -159 315 -9 53 -9 74 0 97 20 47 46 53 205 46 180 -8
227 1 380 78 254 127 374 168 493 168 190 0 307 -142 488 -590 146 -361 169
-527 126 -880 -30 -241 -42 -476 -50 -980 -7 -457 -7 -466 -30 -517 -28 -63
-102 -136 -168 -164 -102 -45 -354 -98 -719 -154 -203 -30 -385 -60 -404 -66
-80 -26 -91 -68 -31 -122 55 -50 100 -56 176 -27 33 12 77 28 98 36 70 26 223
35 549 32 344 -3 391 1 593 54 215 56 287 142 302 363 3 44 10 88 15 99 16 30
62 15 209 -68 177 -101 351 -186 396 -193 34 -6 35 -5 28 18 -12 38 -76 117
-135 166 -75 61 -173 117 -315 179 -133 57 -185 95 -217 157 -24 47 -25 63
-13 307 5 112 3 210 -9 355 -14 169 -15 293 -10 810 7 669 5 714 -46 824 -26
54 -58 91 -219 250 -104 102 -210 205 -234 227 -59 54 -71 103 -36 141 29 31
174 101 379 183 85 35 223 94 305 132 279 130 300 134 602 123 115 -5 285 -9
378 -9 205 -1 249 10 356 86 110 79 125 87 197 114 137 52 321 87 683 129 118
14 255 31 304 39 160 25 344 29 535 12 117 -11 286 -16 507 -16 402 0 458 -6
573 -63 71 -34 95 -42 145 -42 33 0 69 3 79 8 18 7 18 9 -4 32 -13 14 -19 25
-12 25 15 0 42 29 42 45 0 8 -14 22 -31 32 -30 18 -30 18 -7 23 16 4 24 14 26
34 5 44 -38 81 -127 111 -42 14 -106 43 -143 64 -73 43 -351 160 -440 186 -74
21 -88 41 -88 127 0 129 -19 142 -211 151 -69 4 -134 9 -143 13 -9 4 -25 23
-36 44 -20 38 -36 50 -71 50 -58 0 -94 103 -46 134 19 13 123 43 211 61 42 9
93 67 111 127 21 71 19 92 -10 126 -14 17 -25 35 -25 41 0 6 11 13 25 16 14 3
36 7 49 10 34 7 56 32 56 63 0 35 -26 72 -50 72 -31 0 -49 26 -43 64 4 23 1
35 -9 39 -31 11 -313 -23 -403 -49 -82 -25 -99 -26 -220 -21 -146 6 -440 53
-615 97 -321 81 -822 300 -1345 588 -260 143 -785 402 -1045 515 -623 270
-1348 495 -1915 592 -276 47 -405 84 -736 211 -205 78 -348 121 -549 167 -316
72 -412 74 -585 13 -141 -50 -202 -47 -292 17 -79 56 -214 244 -309 431 -31
61 -76 139 -100 172 -124 175 -389 346 -628 405 -108 27 -285 33 -400 14z"/>
</g>
</svg>
