<?xml version="1.0" standalone="no"?>
<!DOCTYPE svg PUBLIC "-//W3C//DTD SVG 20010904//EN"
 "http://www.w3.org/TR/2001/REC-SVG-20010904/DTD/svg10.dtd">
<svg version="1.0" xmlns="http://www.w3.org/2000/svg"
 width="2532.000000pt" height="1950.000000pt" viewBox="0 0 2532.000000 1950.000000"
 preserveAspectRatio="xMidYMid meet">
<metadata>
Created by potrace 1.16, written by Peter Selinger 2001-2019
</metadata>
<g transform="translate(0.000000,1950.000000) scale(0.100000,-0.100000)"
fill="#000000" stroke="none">
<path d="M20189 19491 c-14 -5 -69 -9 -124 -10 -54 -1 -116 -8 -139 -16 -23
-7 -66 -16 -96 -19 -90 -10 -168 -29 -355 -84 -55 -16 -113 -37 -130 -45 -16
-9 -61 -28 -100 -43 -38 -14 -81 -32 -95 -39 -14 -7 -36 -17 -50 -23 -69 -28
-158 -71 -171 -84 -8 -7 -37 -28 -65 -46 -27 -17 -70 -50 -95 -72 -24 -22 -47
-40 -52 -40 -15 0 -188 -122 -200 -141 -6 -10 -17 -19 -22 -19 -6 0 -17 -6
-23 -12 -7 -7 -16 -13 -20 -13 -7 0 -31 -21 -114 -99 -26 -25 -55 -50 -65 -58
-33 -24 -116 -133 -218 -283 -55 -82 -125 -176 -156 -210 -33 -36 -72 -93 -92
-137 -20 -41 -66 -119 -102 -173 -37 -54 -77 -121 -89 -149 -30 -66 -66 -159
-66 -169 0 -17 -46 -105 -77 -148 -18 -26 -33 -49 -33 -53 0 -6 -82 -129 -92
-136 -3 -3 -9 -22 -13 -44 -4 -21 -25 -74 -46 -118 -22 -43 -39 -87 -39 -97 0
-48 -178 -154 -286 -171 -38 -6 -98 -17 -134 -25 -36 -8 -112 -19 -170 -25
-58 -7 -148 -20 -200 -31 -52 -11 -117 -24 -145 -29 -27 -5 -66 -15 -85 -23
-19 -8 -78 -24 -130 -37 -61 -14 -128 -40 -190 -72 -52 -27 -131 -59 -175 -72
-45 -13 -101 -34 -124 -45 -42 -22 -140 -40 -441 -81 -80 -11 -210 -33 -290
-50 -80 -16 -194 -35 -255 -40 -170 -17 -316 -45 -485 -96 -85 -25 -186 -53
-224 -60 -79 -16 -187 -46 -261 -74 -66 -24 -376 -159 -389 -169 -6 -4 -33
-13 -61 -20 -27 -6 -75 -22 -105 -35 -110 -47 -166 -69 -225 -88 -236 -75
-447 -154 -690 -259 -103 -44 -191 -91 -283 -151 -73 -48 -143 -90 -155 -94
-12 -4 -40 -19 -62 -34 -124 -84 -414 -232 -575 -292 -30 -11 -59 -24 -65 -28
-5 -4 -29 -11 -52 -15 -23 -3 -44 -12 -46 -19 -3 -7 -36 -25 -74 -40 -96 -39
-134 -57 -166 -79 -15 -10 -85 -48 -155 -84 -70 -36 -142 -76 -160 -90 -17
-13 -37 -21 -42 -18 -6 3 -10 2 -10 -2 0 -10 -74 -43 -96 -43 -8 0 -29 -14
-46 -30 -16 -17 -34 -28 -39 -24 -5 3 -9 -1 -9 -8 0 -11 -29 -33 -104 -75 -11
-7 -28 -17 -36 -22 -8 -6 -69 -38 -135 -72 -66 -34 -184 -102 -262 -151 -78
-48 -150 -92 -160 -96 -10 -4 -51 -28 -91 -55 -40 -26 -78 -47 -85 -47 -14 0
-119 -50 -127 -60 -3 -4 -20 -12 -38 -18 -18 -6 -40 -18 -49 -27 -8 -9 -28
-19 -44 -22 -17 -3 -29 -12 -29 -21 0 -8 -3 -13 -6 -9 -4 3 -27 -5 -53 -18
-25 -14 -56 -25 -68 -25 -12 0 -25 -4 -28 -10 -3 -5 -15 -10 -26 -10 -10 0
-19 -4 -19 -8 0 -7 -70 -46 -77 -43 -2 0 -38 -18 -80 -40 -43 -23 -112 -53
-153 -66 -41 -14 -91 -33 -110 -43 -58 -29 -226 -90 -267 -96 -44 -7 -277 -77
-343 -104 -93 -37 -249 -90 -380 -129 -251 -74 -345 -100 -385 -107 -22 -4
-51 -12 -65 -19 -14 -7 -43 -16 -65 -19 -35 -7 -254 -68 -295 -83 -8 -3 -22
-7 -30 -8 -45 -7 -299 -80 -372 -107 -15 -6 -31 -10 -35 -10 -4 0 -19 -6 -33
-13 -21 -11 -65 -23 -185 -50 -12 -3 -48 -14 -80 -26 -33 -12 -72 -22 -87 -23
-16 0 -28 -7 -28 -13 0 -7 -11 -13 -25 -13 -14 0 -25 -4 -25 -9 0 -5 -27 -14
-61 -20 -65 -11 -214 -54 -267 -77 -18 -8 -38 -14 -44 -14 -7 0 -30 -8 -52
-19 -23 -10 -75 -31 -116 -46 -41 -15 -115 -52 -164 -81 -49 -30 -94 -54 -99
-54 -6 0 -54 -20 -108 -45 -54 -25 -103 -45 -110 -45 -14 0 -243 -92 -336
-135 -40 -19 -123 -52 -185 -75 -62 -23 -144 -56 -183 -74 -38 -18 -103 -48
-142 -66 -40 -19 -73 -39 -73 -45 0 -16 -26 -28 -135 -63 -80 -25 -317 -78
-430 -96 -11 -2 -67 -12 -125 -24 -58 -12 -179 -33 -270 -48 -91 -14 -208 -35
-260 -46 -52 -11 -135 -28 -185 -39 -49 -10 -104 -18 -122 -19 -17 0 -33 -4
-35 -10 -1 -5 -30 -14 -63 -19 -150 -25 -237 -41 -325 -61 -52 -12 -110 -24
-128 -26 -17 -3 -86 -20 -153 -39 -66 -19 -129 -35 -140 -35 -10 0 -19 -4 -19
-9 0 -5 -21 -14 -47 -20 -27 -5 -66 -19 -88 -31 -21 -11 -47 -20 -57 -20 -10
0 -18 -3 -18 -8 0 -4 -17 -16 -37 -27 -44 -24 -102 -84 -103 -106 0 -21 44
-40 104 -45 27 -2 182 6 344 16 163 11 297 18 299 17 1 -2 -41 -12 -94 -22
-155 -29 -449 -158 -452 -198 -1 -5 -18 -25 -39 -45 -49 -47 -55 -65 -35 -100
15 -27 63 -47 163 -68 42 -9 261 -17 530 -20 140 -1 266 -6 278 -11 22 -9 20
-11 -35 -41 -114 -61 -167 -98 -148 -105 15 -6 15 -9 -4 -33 -12 -15 -21 -32
-21 -40 0 -7 -6 -15 -12 -18 -33 -13 84 -81 208 -119 141 -45 256 -57 343 -36
51 11 113 19 188 22 28 1 55 5 59 9 3 4 14 4 23 -1 9 -5 43 -5 76 0 33 4 97 8
143 8 58 1 82 5 82 14 0 9 3 8 9 -2 6 -9 10 -10 16 -2 5 9 10 9 20 1 8 -7 15
-7 19 -1 4 5 50 10 104 10 642 3 714 3 725 -8 6 -6 19 -11 28 -11 9 0 20 -7
23 -16 3 -8 10 -12 16 -9 5 3 22 -1 37 -9 32 -17 82 -30 101 -27 8 1 19 -2 25
-7 7 -5 28 -13 47 -17 19 -4 69 -18 110 -32 41 -14 90 -27 110 -29 19 -3 37
-9 40 -13 3 -5 29 -12 57 -16 29 -4 56 -11 59 -16 4 -6 10 -6 18 0 8 7 31 3
70 -10 33 -10 72 -19 87 -19 15 0 31 -5 34 -10 3 -6 19 -10 35 -10 16 0 32 -5
35 -11 4 -6 13 -8 20 -5 8 3 19 -2 26 -10 7 -8 25 -14 39 -12 15 1 34 -2 41
-9 8 -6 45 -14 83 -17 37 -3 72 -8 76 -11 5 -3 37 -8 72 -11 104 -10 111 -11
153 -22 22 -6 78 -18 125 -28 47 -10 90 -21 95 -25 15 -11 93 -30 165 -41 91
-13 113 -18 215 -48 17 -5 53 -10 80 -11 28 -2 64 -8 81 -15 17 -7 51 -12 75
-10 24 1 49 -1 56 -6 6 -5 38 -9 69 -9 32 0 66 -5 75 -10 14 -7 137 -15 379
-23 25 -1 51 -5 58 -10 7 -4 29 -6 50 -5 20 2 47 -3 59 -9 11 -6 41 -13 65
-15 23 -1 49 -6 56 -10 6 -5 12 -6 12 -3 0 3 12 -1 26 -9 14 -7 37 -12 50 -10
14 1 34 -7 50 -22 19 -18 29 -21 39 -13 9 8 17 7 27 -2 15 -15 29 -19 76 -26
17 -2 32 -9 32 -14 0 -7 14 -8 36 -5 25 4 41 2 51 -8 8 -8 26 -15 41 -16 62
-1 112 -20 112 -42 0 -12 90 -64 126 -72 10 -2 33 -8 51 -14 17 -5 34 -7 37
-3 3 3 6 -4 6 -15 0 -11 11 -25 28 -33 15 -8 39 -22 53 -32 28 -18 131 -50
162 -50 9 1 17 -4 17 -9 0 -6 9 -8 19 -4 12 3 23 0 28 -8 10 -19 104 -67 140
-73 15 -3 48 -7 72 -8 24 -2 53 -8 65 -14 11 -5 40 -15 63 -22 24 -7 43 -17
43 -21 0 -4 40 -24 90 -44 49 -21 97 -46 107 -57 19 -21 107 -68 128 -68 8 0
26 -11 41 -25 15 -14 35 -25 45 -25 10 0 20 -8 24 -17 6 -18 209 -123 237
-123 9 0 21 -7 28 -15 7 -8 20 -15 29 -15 9 0 21 -4 26 -9 6 -5 44 -23 85 -39
41 -17 91 -44 110 -61 87 -78 332 -208 424 -225 21 -4 36 -13 36 -21 0 -8 12
-17 28 -20 15 -3 51 -15 80 -27 29 -11 65 -21 80 -23 15 -2 61 -12 102 -23 41
-10 102 -25 135 -32 72 -15 195 -47 250 -66 36 -12 76 -18 218 -30 26 -2 55
-8 65 -13 9 -4 44 -12 77 -16 33 -4 67 -13 76 -21 15 -13 17 -13 22 0 5 14 11
14 48 1 53 -19 176 -26 477 -28 133 -1 242 -6 242 -10 0 -5 6 -5 13 0 21 13
131 13 139 0 4 -7 8 -7 8 -2 0 11 50 12 67 2 5 -3 52 -8 104 -11 52 -3 94 -6
94 -7 0 -1 345 -10 380 -10 11 1 74 0 140 0 116 -1 144 -1 230 0 22 0 121 0
220 1 99 0 194 2 210 5 113 17 143 17 173 1 49 -26 73 -83 85 -209 13 -134 3
-216 -46 -372 -19 -60 -39 -135 -45 -167 -6 -31 -20 -76 -31 -100 -18 -38 -18
-44 -5 -54 12 -9 12 -13 2 -16 -7 -3 -13 -18 -14 -35 -1 -16 -9 -45 -17 -64
-9 -19 -19 -47 -21 -64 -11 -64 -18 -85 -27 -85 -5 0 -9 -9 -9 -19 0 -11 -4
-22 -9 -26 -6 -3 -13 -26 -17 -50 -3 -25 -10 -47 -14 -50 -5 -3 -11 -23 -15
-44 -4 -22 -13 -45 -21 -52 -7 -6 -11 -15 -8 -20 2 -5 -2 -22 -11 -39 -8 -16
-13 -30 -9 -30 3 0 -1 -11 -10 -25 -9 -13 -16 -31 -16 -39 0 -9 -13 -44 -28
-78 -16 -35 -35 -78 -43 -95 -8 -18 -17 -33 -21 -33 -5 0 -8 -6 -8 -14 0 -18
-41 -118 -86 -211 -19 -38 -34 -75 -34 -81 0 -6 -10 -18 -22 -26 -27 -18 -37
-90 -32 -228 18 -509 22 -609 28 -618 2 -4 7 -57 11 -117 9 -165 14 -234 24
-299 4 -33 6 -67 4 -77 -3 -9 0 -26 6 -37 8 -15 8 -23 1 -27 -8 -5 -7 -11 1
-21 7 -9 9 -30 4 -61 -9 -59 -9 -329 0 -343 4 -6 6 -43 5 -83 -1 -39 -1 -76 0
-82 2 -21 7 -204 8 -275 1 -41 2 -88 3 -105 6 -165 -5 -1282 -15 -1455 -12
-200 -18 -270 -31 -325 -7 -33 -16 -77 -20 -99 -7 -43 -35 -106 -47 -106 -4 0
-8 -14 -8 -31 0 -16 -4 -28 -9 -24 -13 8 -55 -67 -81 -143 -16 -51 -20 -83
-18 -160 3 -90 5 -97 24 -100 11 -2 27 4 34 13 7 8 23 15 37 15 13 0 22 3 20
8 -3 4 1 12 8 19 17 16 41 -18 51 -72 4 -21 13 -50 21 -64 20 -38 8 -163 -28
-291 -38 -140 -38 -164 7 -220 40 -50 149 -125 203 -140 20 -5 78 -21 130 -36
92 -26 96 -26 320 -20 124 4 259 9 299 12 55 4 87 1 125 -11 109 -36 174 -43
512 -50 341 -7 405 -4 670 30 55 7 121 10 148 8 33 -4 55 0 71 11 14 8 48 20
78 25 145 26 276 52 299 60 15 5 46 30 69 55 48 52 79 58 133 29 28 -16 63
-18 317 -17 275 1 289 2 405 28 66 16 139 32 162 37 23 4 68 15 100 23 140 37
302 47 756 48 359 0 464 -2 557 -16 121 -17 169 -15 572 25 65 7 149 9 187 6
38 -3 86 -1 106 4 l36 10 -21 30 c-12 16 -35 36 -51 45 -34 17 -69 69 -69 101
0 35 22 73 49 88 19 9 53 11 120 7 l94 -5 -21 30 c-32 44 -107 103 -174 134
-32 16 -58 26 -58 24 0 -3 -17 1 -37 9 -68 25 -56 25 -633 40 -282 8 -362 14
-440 32 -36 8 -112 24 -170 34 -142 25 -308 73 -405 117 -44 20 -93 37 -109
38 -17 1 -38 12 -51 27 -12 14 -38 28 -57 32 -20 4 -39 13 -42 22 -3 8 -10 12
-16 9 -6 -3 -13 1 -16 9 -3 9 -12 16 -18 16 -20 0 -147 80 -201 127 -27 24
-72 71 -99 105 -27 35 -66 77 -87 93 -21 17 -38 36 -39 44 0 22 -38 79 -115
176 -80 100 -126 169 -173 262 -62 124 -156 269 -205 318 -59 60 -91 105 -146
210 -69 129 -110 204 -172 310 -32 55 -85 161 -118 235 -32 74 -79 178 -104
230 -24 52 -66 149 -92 215 -26 66 -82 192 -125 280 -43 88 -94 201 -115 250
-21 50 -71 161 -112 248 -80 169 -123 277 -179 452 -20 61 -40 115 -44 120 -4
6 -16 36 -26 68 -10 31 -21 57 -26 57 -4 0 -8 12 -8 28 0 15 -6 36 -13 47 -17
27 -82 196 -103 270 -9 33 -32 107 -51 165 -43 131 -40 105 -47 360 -7 212
-19 350 -36 395 -5 13 -6 26 -3 29 4 3 1 6 -6 6 -7 0 -9 5 -6 10 3 6 2 10 -4
10 -6 0 -8 7 -4 16 3 9 1 19 -4 23 -53 33 -98 352 -60 413 9 13 17 41 20 63 3
22 11 65 18 95 6 30 13 69 14 85 2 17 3 32 5 35 1 3 4 23 6 44 3 21 9 47 14
57 6 10 7 24 4 33 -3 8 -2 21 3 28 7 12 13 60 13 116 0 12 4 22 9 22 4 0 7 11
6 25 -2 14 0 25 4 25 4 0 8 10 8 23 3 59 15 132 21 137 4 3 9 23 11 45 1 22 7
42 12 43 5 2 9 12 9 22 0 10 7 25 15 33 8 8 22 29 32 47 10 18 22 32 26 31 5
-1 17 7 27 19 11 12 24 19 29 15 6 -3 11 -3 11 2 0 23 120 59 365 109 121 24
254 55 295 69 110 36 356 93 499 116 223 36 333 59 410 89 42 16 96 32 121 35
25 4 50 11 55 15 6 4 36 13 67 20 32 6 60 16 63 21 4 5 19 9 35 9 16 0 31 4
34 9 6 9 83 27 98 23 4 -1 32 9 62 23 30 14 63 25 73 25 10 0 72 18 138 39
128 41 169 56 290 105 54 21 99 39 105 41 3 1 16 6 30 12 14 6 42 18 64 27 21
9 47 16 57 16 10 0 24 8 31 18 7 9 20 18 28 20 8 2 22 10 31 18 8 8 20 14 24
14 13 0 259 121 265 130 3 5 32 21 65 36 33 15 80 40 105 54 25 15 51 25 58
22 6 -2 12 2 12 8 0 10 3 10 14 1 12 -10 13 -8 9 10 -4 15 -3 20 5 15 7 -4 15
-1 18 7 3 8 22 18 42 22 20 4 44 16 54 27 9 11 22 17 27 13 6 -3 11 -1 11 4 0
6 3 10 8 9 4 0 16 2 27 6 11 4 32 12 48 18 15 6 27 13 27 17 0 6 32 21 73 35
9 3 17 12 17 21 0 9 19 24 46 35 25 11 64 35 87 53 23 19 57 42 75 53 17 10
32 21 32 25 0 3 18 19 39 34 25 16 38 32 34 41 -3 8 1 14 11 14 8 0 23 11 32
26 9 14 23 23 30 20 8 -3 18 8 26 29 6 19 17 35 24 35 6 0 17 7 24 15 7 8 21
15 31 15 12 0 19 7 19 20 0 11 7 23 15 26 8 4 15 11 15 16 0 6 11 19 25 30 14
11 25 25 25 31 0 7 13 21 29 32 16 10 27 23 24 28 -7 12 49 66 70 67 10 0 15
5 12 10 -10 16 24 62 41 56 9 -3 14 1 14 14 0 11 4 20 8 20 4 0 16 14 25 30
10 17 25 30 33 30 17 0 18 12 2 28 -9 9 -9 12 1 12 18 0 61 47 61 66 0 7 5 14
10 14 6 0 10 7 10 15 0 8 7 15 15 15 8 0 15 6 15 13 0 7 10 23 23 34 12 11 42
41 65 67 24 25 47 46 52 46 4 0 19 19 33 43 14 23 46 65 71 92 25 28 46 55 46
62 0 7 8 17 19 22 10 6 28 28 40 50 11 22 29 49 40 60 11 11 29 41 40 67 12
26 45 74 75 108 29 34 58 71 65 84 7 12 16 20 21 17 6 -3 17 12 26 34 9 23 20
41 25 41 5 0 9 8 9 18 0 18 33 52 50 52 6 0 10 7 10 15 0 18 26 61 53 87 9 10
17 27 17 38 0 11 9 25 19 32 10 6 17 17 14 24 -4 11 10 33 47 73 26 28 51 71
46 79 -6 10 41 62 55 62 6 0 7 5 4 10 -4 6 5 23 19 37 14 14 26 36 26 48 0 12
11 32 25 45 14 13 25 27 25 32 0 5 11 19 25 32 14 13 25 33 25 46 0 13 8 24
19 27 12 3 17 11 14 19 -3 8 1 14 11 14 16 0 38 38 41 72 1 10 10 29 19 42 9
14 16 32 16 41 0 8 5 15 10 15 6 0 10 6 10 13 0 29 69 145 118 197 12 13 19
26 17 30 -5 9 56 129 98 194 10 14 17 32 17 40 0 8 6 17 13 19 10 4 10 6 0 6
-18 1 -16 50 2 57 8 4 15 17 15 30 0 13 4 24 10 24 5 0 8 13 6 29 -2 19 2 32
11 35 8 3 12 10 8 15 -3 5 2 29 10 53 18 49 20 57 30 114 3 23 15 51 25 62 12
12 18 31 16 48 -2 16 1 32 7 35 5 4 11 31 12 60 1 30 8 57 16 63 8 6 15 34 17
61 2 31 9 53 18 58 11 7 12 12 4 22 -8 10 -7 25 4 57 29 88 66 237 60 251 -2
7 0 25 5 40 22 56 50 278 52 405 1 72 6 132 10 132 4 0 1 12 -7 28 -7 15 -14
41 -14 59 0 17 -4 43 -10 57 -7 19 -6 26 3 26 9 0 9 2 1 8 -16 10 -27 103 -16
132 8 20 6 31 -10 50 -13 16 -17 31 -13 49 14 53 15 71 5 71 -12 0 -13 37 -1
44 5 3 2 25 -6 48 -20 56 -33 314 -17 339 8 13 10 24 18 94 8 77 50 219 70
239 45 45 68 75 70 92 2 11 7 19 12 19 14 1 55 26 78 47 26 24 117 74 151 82
14 4 25 10 25 15 0 10 124 73 190 96 23 8 61 15 84 15 23 0 93 6 156 14 63 8
141 17 173 20 32 3 63 8 68 12 8 5 71 -12 129 -33 8 -3 22 -7 30 -8 25 -3 104
-28 115 -36 6 -4 34 -14 63 -23 29 -8 66 -24 81 -36 16 -11 36 -20 44 -20 8 0
28 -7 43 -15 16 -8 43 -15 61 -15 17 0 35 -4 38 -10 3 -5 17 -10 30 -10 13 0
26 -4 29 -9 3 -5 26 -12 50 -15 24 -4 50 -13 56 -21 6 -8 18 -11 26 -8 7 3 17
-2 20 -11 3 -9 10 -13 15 -10 11 6 99 -25 99 -35 0 -4 12 -8 26 -9 38 -3 133
-32 139 -43 4 -5 17 -9 31 -9 13 0 24 -3 24 -7 0 -5 10 -9 23 -9 12 -1 47 -9
77 -18 30 -10 62 -18 70 -20 8 -2 22 -6 30 -9 47 -17 84 -27 88 -22 3 2 14 -1
25 -6 11 -6 34 -13 51 -16 17 -2 67 -12 111 -23 44 -10 97 -22 118 -25 20 -4
37 -10 37 -14 0 -3 15 -7 33 -7 17 -1 48 -4 67 -8 19 -3 54 -8 78 -11 24 -2
48 -7 53 -11 5 -3 62 -8 127 -11 110 -5 120 -7 172 -38 55 -34 55 -34 63 -12
11 29 0 107 -25 182 -36 105 -162 274 -325 433 -58 56 -109 100 -114 96 -5 -3
-9 -1 -9 5 0 25 -358 249 -572 357 -59 30 -115 54 -123 54 -22 0 -124 53 -203
105 -277 183 -371 242 -472 292 -240 119 -404 246 -526 405 -76 98 -123 236
-179 523 -30 158 -35 203 -38 365 -3 181 -4 186 -31 234 -18 32 -27 58 -24 77
3 16 1 30 -2 31 -4 2 -31 49 -60 105 -29 55 -69 119 -89 142 -20 22 -53 63
-74 90 -20 28 -54 62 -75 75 -20 13 -48 36 -62 50 -14 15 -37 38 -51 52 -28
27 -165 114 -180 114 -5 0 -9 4 -9 10 0 9 -114 80 -130 80 -5 0 -55 26 -112
59 -154 87 -179 98 -264 121 -44 12 -86 28 -95 36 -23 21 -152 54 -202 53 -23
-1 -52 3 -64 9 -12 7 -39 12 -60 12 -21 0 -56 5 -79 10 -23 5 -59 12 -80 15
-70 10 -518 15 -545 6z m-6234 -13185 c14 -30 25 -62 25 -70 0 -9 5 -16 10
-16 6 0 10 -8 10 -18 0 -10 3 -22 8 -26 4 -4 7 -11 7 -14 1 -4 11 -26 22 -48
12 -23 27 -63 33 -90 13 -54 13 -55 65 -169 41 -91 83 -173 99 -195 22 -30 36
-60 36 -79 0 -10 7 -21 15 -25 8 -3 30 -36 47 -73 18 -37 35 -70 39 -73 11 -8
147 -292 154 -322 4 -16 10 -28 14 -28 4 0 18 -26 31 -57 12 -32 28 -71 35
-88 7 -16 16 -37 19 -45 3 -8 10 -22 14 -30 5 -8 13 -24 19 -35 5 -11 14 -29
20 -40 14 -27 49 -104 61 -135 6 -14 35 -78 66 -143 31 -65 56 -124 56 -132 0
-8 5 -15 10 -15 6 0 10 -6 10 -13 0 -7 11 -37 25 -65 14 -29 25 -56 25 -62 0
-5 5 -10 10 -10 6 0 10 -9 10 -20 0 -11 5 -20 10 -20 6 0 10 -11 10 -24 0 -13
6 -37 14 -53 8 -15 27 -57 41 -93 33 -81 45 -108 84 -192 17 -37 31 -74 31
-83 0 -8 4 -23 9 -33 32 -58 81 -167 81 -178 0 -8 5 -14 10 -14 6 0 10 -9 10
-21 0 -11 11 -44 24 -72 13 -29 29 -69 36 -89 6 -20 14 -38 18 -40 4 -2 17
-30 29 -63 63 -177 80 -222 91 -241 6 -12 9 -24 6 -27 -3 -3 -1 -13 5 -24 23
-42 41 -106 41 -143 0 -21 4 -41 9 -44 11 -7 26 -171 22 -256 -1 -36 -13 -96
-26 -135 -13 -38 -27 -88 -30 -110 -4 -22 -13 -57 -21 -78 -19 -51 -18 -84 4
-96 14 -7 25 -6 41 5 12 9 28 13 36 10 8 -3 17 -1 20 4 4 6 14 10 23 10 10 0
24 9 32 20 16 23 30 26 30 8 0 -7 11 -26 25 -42 19 -22 25 -40 25 -77 0 -26 4
-50 9 -54 5 -3 13 -20 16 -37 4 -18 20 -56 36 -85 16 -30 29 -63 29 -74 0 -12
4 -17 11 -14 22 14 48 -43 64 -138 3 -16 7 -32 9 -35 2 -4 0 -27 -4 -52 -8
-39 -5 -53 22 -108 16 -35 28 -72 25 -82 -3 -11 -1 -20 5 -20 5 0 9 -15 7 -32
-2 -39 4 -57 46 -124 21 -33 35 -69 39 -104 4 -30 12 -60 19 -68 6 -8 12 -20
12 -26 1 -6 5 -19 9 -29 6 -13 3 -22 -10 -32 -11 -7 -21 -9 -22 -4 -7 19 -76
47 -97 38 -11 -4 -41 -8 -67 -8 -27 -1 -48 -4 -48 -8 0 -5 -39 -8 -87 -8 -49
0 -132 -6 -185 -13 -134 -17 -430 -16 -521 2 -40 8 -96 17 -126 21 -30 3 -62
10 -72 16 -10 5 -75 13 -146 19 -70 5 -153 12 -183 15 -30 2 -79 13 -108 25
-29 11 -63 20 -77 20 -13 0 -27 4 -30 10 -7 11 -184 64 -247 74 -14 3 -55 22
-90 43 l-63 38 1 55 c0 70 -12 109 -42 137 -13 12 -24 31 -24 43 0 11 -9 39
-20 63 -10 23 -21 56 -23 72 -2 17 -9 43 -15 58 -7 16 -15 61 -18 100 -3 40
-14 99 -24 133 -11 36 -18 94 -19 145 0 46 -3 102 -5 124 -3 22 -9 126 -12
230 -4 105 -9 226 -10 270 -2 44 -4 172 -4 285 -1 422 -1 635 -2 650 0 8 3
206 6 440 8 485 20 736 41 836 8 38 15 78 15 89 0 11 14 63 31 115 84 262 93
338 85 660 -4 135 -8 259 -10 275 -2 17 7 73 20 125 22 92 52 226 61 283 8 43
31 32 58 -27z"/>
<path d="M21455 13010 c3 -5 8 -10 11 -10 2 0 4 5 4 10 0 6 -5 10 -11 10 -5 0
-7 -4 -4 -10z"/>
<path d="M13100 2509 c0 -5 5 -7 10 -4 6 3 10 8 10 11 0 2 -4 4 -10 4 -5 0
-10 -5 -10 -11z"/>
</g>
</svg>
