<?xml version="1.0" standalone="no"?>
<!DOCTYPE svg PUBLIC "-//W3C//DTD SVG 20010904//EN"
 "http://www.w3.org/TR/2001/REC-SVG-20010904/DTD/svg10.dtd">
<svg version="1.0" xmlns="http://www.w3.org/2000/svg"
 width="1536.000000pt" height="1461.000000pt" viewBox="0 0 1536.000000 1461.000000"
 preserveAspectRatio="xMidYMid meet">
<metadata>
Created by potrace 1.16, written by Peter Selinger 2001-2019
</metadata>
<g transform="translate(0.000000,1461.000000) scale(0.100000,-0.100000)"
fill="#000000" stroke="none">
<path d="M5365 14604 c-16 -2 -70 -9 -120 -15 -217 -26 -482 -97 -567 -151
-74 -47 -175 -163 -268 -307 -120 -188 -183 -271 -229 -301 -78 -53 -313 -117
-841 -230 -591 -126 -904 -214 -1440 -405 -870 -309 -1255 -518 -1634 -885
-108 -104 -218 -236 -250 -297 -15 -29 -23 -133 -11 -133 3 0 68 38 143 83
386 235 930 507 1357 677 787 314 1475 464 2240 486 414 13 822 -41 1029 -135
l64 -29 16 -70 c28 -122 36 -203 36 -366 0 -268 -22 -373 -170 -806 -359
-1047 -452 -1582 -389 -2240 32 -345 120 -710 364 -1520 222 -736 454 -1318
609 -1530 221 -302 943 -794 1911 -1303 l200 -105 34 -69 c96 -195 227 -544
251 -670 26 -131 7 -200 -134 -508 -61 -133 -70 -187 -61 -361 l7 -142 -373
-617 -372 -618 -206 -226 c-734 -806 -1214 -1381 -1285 -1539 -31 -68 -13 -73
91 -25 245 114 391 104 513 -36 33 -37 62 -61 75 -61 31 0 138 54 220 111 l73
50 114 3 c81 2 145 10 225 29 61 15 120 24 130 21 80 -26 99 -64 116 -229 7
-68 16 -127 19 -130 3 -4 19 0 35 8 61 32 129 38 773 67 351 17 525 42 620 90
49 25 56 39 71 130 22 130 -8 376 -120 981 -95 519 -98 545 -77 657 9 45 22
175 30 289 29 392 62 1326 53 1483 -11 188 -66 451 -147 702 -16 51 -27 94
-25 96 2 3 51 -23 107 -56 l103 -62 5 91 5 91 67 -61 c36 -34 68 -61 70 -61 3
0 -1 39 -8 87 -7 48 -12 88 -11 89 1 1 60 -30 130 -68 70 -39 130 -69 132 -67
2 2 -3 33 -10 69 -7 36 -13 66 -12 66 1 1 49 -15 106 -37 57 -22 105 -38 106
-37 1 2 9 59 16 127 l14 123 92 -81 c50 -44 94 -81 97 -81 3 0 6 47 6 105 0
58 3 105 7 105 3 0 47 -31 97 -68 50 -38 96 -71 103 -75 9 -6 10 10 6 63 -3
38 -4 70 -2 70 2 0 98 -27 213 -60 115 -33 210 -59 211 -57 1 1 10 48 20 105
l18 102 40 -72 c21 -40 41 -75 43 -77 2 -2 39 23 81 56 43 33 83 62 88 65 6 4
51 -2 100 -12 50 -11 94 -19 98 -20 5 0 6 39 2 87 l-8 87 94 -99 94 -98 5 114
5 114 123 -149 122 -148 0 141 c0 77 4 141 8 141 12 0 53 -46 107 -120 26 -36
49 -67 52 -70 3 -3 -11 28 -31 68 -20 39 -34 72 -31 72 4 0 27 -12 52 -26 198
-110 484 -188 967 -264 373 -59 938 -155 1408 -241 182 -33 336 -58 341 -56 5
1 -2 16 -16 32 -66 79 -277 369 -277 381 0 26 39 14 177 -55 153 -77 371 -206
690 -407 l212 -134 203 2 203 3 -147 104 c-81 58 -146 106 -145 108 2 1 104
-31 227 -72 l224 -75 -35 36 c-19 19 -96 92 -171 162 -75 69 -136 127 -135
129 2 1 113 -43 247 -97 135 -55 247 -100 250 -100 2 0 -27 32 -65 70 l-69 70
94 0 95 0 -343 227 c-188 124 -341 228 -338 230 2 3 214 -41 472 -97 257 -55
471 -99 477 -97 14 4 -82 116 -199 232 -109 108 -175 151 -323 209 -112 45
-305 100 -441 128 l-107 22 35 33 c32 30 34 36 29 75 -5 36 -15 52 -59 93 -67
62 -219 153 -446 266 -95 48 -169 90 -163 94 27 16 6 127 -33 177 -89 114
-813 631 -1991 1423 -267 179 -360 248 -435 319 -353 337 -880 804 -1168 1034
-182 145 -288 217 -459 314 -447 250 -1348 623 -1813 748 -140 38 -262 90
-423 182 -317 182 -629 412 -844 623 -76 75 -99 105 -127 166 -70 154 -91 311
-83 619 10 380 81 823 242 1520 77 332 52 546 -100 855 -96 195 -242 379 -390
492 -126 96 -254 132 -490 138 -88 2 -173 2 -190 -1z m2404 -12674 c-10 -591
-18 -1121 -18 -1177 l-1 -101 -337 0 c-378 0 -653 -19 -820 -58 -24 -6 -19 3
45 68 82 84 78 74 147 348 54 215 82 363 95 501 5 60 18 130 30 161 25 69 94
165 198 281 53 59 98 122 135 192 81 149 535 873 541 863 1 -2 -6 -487 -15
-1078z"/>
</g>
</svg>
