<?xml version="1.0" standalone="no"?>
<!DOCTYPE svg PUBLIC "-//W3C//DTD SVG 20010904//EN"
 "http://www.w3.org/TR/2001/REC-SVG-20010904/DTD/svg10.dtd">
<svg version="1.0" xmlns="http://www.w3.org/2000/svg"
 width="1536.000000pt" height="1030.000000pt" viewBox="0 0 1536.000000 1030.000000"
 preserveAspectRatio="xMidYMid meet">
<metadata>
Created by potrace 1.16, written by Peter Selinger 2001-2019
</metadata>
<g transform="translate(0.000000,1030.000000) scale(0.100000,-0.100000)"
fill="#000000" stroke="none">
<path d="M3140 10286 c-30 -7 -82 -19 -115 -26 -33 -6 -96 -29 -140 -51 -44
-21 -109 -50 -145 -65 -36 -14 -105 -47 -155 -72 -81 -41 -105 -61 -235 -191
-97 -97 -165 -176 -204 -235 -32 -48 -81 -113 -108 -143 -63 -69 -93 -135
-114 -244 -8 -46 -24 -115 -34 -154 -10 -38 -24 -106 -30 -150 -39 -280 -49
-298 -227 -426 -48 -35 -146 -109 -218 -164 -71 -56 -238 -183 -370 -282 -132
-99 -284 -217 -337 -261 -90 -74 -250 -185 -395 -272 -32 -19 -110 -87 -174
-151 -91 -90 -120 -125 -130 -158 -16 -55 -5 -68 46 -50 36 13 38 13 59 -14
27 -34 55 -35 142 -2 76 29 129 58 296 161 140 88 225 130 800 403 l447 212
208 -9 c194 -8 213 -11 266 -35 74 -33 406 -276 452 -329 60 -71 130 -224 203
-443 68 -206 170 -471 220 -570 35 -71 180 -305 207 -335 13 -14 57 -85 99
-159 90 -158 109 -183 236 -316 52 -55 127 -136 166 -180 100 -113 432 -366
954 -728 295 -205 421 -263 885 -407 258 -80 362 -106 615 -150 211 -36 305
-58 345 -78 17 -8 44 -18 60 -21 40 -9 65 -58 65 -131 0 -30 9 -91 19 -135 38
-161 81 -488 81 -622 0 -100 -14 -169 -50 -248 -36 -82 -38 -89 -54 -276 -18
-200 -28 -236 -241 -864 -248 -731 -505 -1349 -584 -1404 -70 -49 -243 -87
-670 -146 -63 -9 -131 -23 -150 -31 -94 -40 -176 -48 -511 -49 -277 -1 -331
-4 -363 -18 -49 -21 -54 -39 -28 -95 11 -26 25 -67 30 -91 12 -55 19 -61 75
-72 35 -6 59 -4 103 10 32 10 85 21 118 25 33 4 101 18 150 31 100 26 235 28
335 5 68 -16 175 -8 280 21 43 12 85 19 94 16 8 -3 18 -22 22 -43 l7 -36 46 5
c26 3 67 13 91 22 70 26 97 28 140 11 54 -21 104 -20 185 5 54 16 80 32 130
79 38 35 90 71 127 88 52 23 70 38 95 78 60 93 92 180 143 384 66 263 186 632
338 1035 185 492 208 548 288 717 95 200 184 463 191 569 4 63 1 95 -22 180
-15 57 -35 142 -45 189 -32 148 -90 533 -90 593 0 50 3 59 26 73 23 16 39 16
167 5 78 -6 243 -16 366 -20 l224 -9 42 -30 c23 -16 51 -33 61 -36 41 -13 58
-48 184 -386 40 -107 86 -227 103 -267 29 -68 29 -74 18 -130 -6 -32 -25 -86
-41 -120 -34 -71 -38 -126 -19 -303 16 -142 -1 -271 -97 -750 -128 -639 -241
-1080 -352 -1375 -6 -16 -14 -42 -17 -58 -9 -46 -72 -99 -160 -133 -109 -43
-225 -68 -278 -60 -110 17 -135 17 -221 2 -50 -8 -147 -17 -216 -19 -150 -5
-190 -18 -218 -74 -11 -21 -28 -46 -39 -55 -30 -27 -100 -48 -177 -52 -103 -7
-286 -68 -286 -96 0 -6 26 -10 58 -10 44 0 69 -6 107 -28 46 -25 59 -27 155
-26 79 0 112 4 135 17 17 9 48 17 70 17 22 1 58 7 80 15 28 10 62 13 110 9 62
-6 156 1 335 22 l55 6 68 -55 c37 -31 76 -59 87 -62 34 -11 117 21 322 124
184 91 195 98 226 146 18 28 43 79 56 115 26 71 78 314 95 450 14 104 123 591
224 1000 49 196 164 612 197 709 55 166 120 424 120 479 0 91 -30 170 -124
331 -65 110 -138 274 -165 369 -11 37 -33 106 -50 153 -17 47 -34 107 -37 133
-7 46 -6 48 43 95 64 62 113 76 232 67 48 -3 119 -2 157 3 38 6 153 15 257 21
103 5 245 17 315 25 70 8 253 21 407 30 154 9 309 20 345 25 183 25 328 50
355 60 17 7 65 13 107 15 42 2 123 13 180 24 57 11 162 29 233 41 72 11 173
36 225 54 52 19 152 55 222 80 70 25 173 54 230 66 127 25 182 52 301 148 105
84 149 109 262 145 107 35 455 136 640 187 83 22 194 58 247 80 101 40 274 84
400 100 40 5 107 21 148 35 41 14 158 41 260 61 212 40 311 64 425 101 80 26
81 26 373 24 168 -1 292 2 292 7 0 12 -52 82 -81 109 -53 48 -175 94 -326 124
-189 37 -264 54 -390 90 -55 16 -154 40 -218 54 -117 25 -189 55 -209 88 -8
13 -8 20 3 26 18 11 153 39 446 91 329 59 628 120 639 131 22 21 -146 1 -429
-52 -176 -32 -333 -47 -358 -33 -8 5 -30 30 -49 56 -18 25 -57 74 -85 108 -29
33 -53 69 -53 80 0 42 26 44 800 47 404 2 742 6 750 9 25 9 -30 32 -142 59
-257 61 -506 91 -885 105 -258 10 -570 38 -669 60 -25 6 -63 19 -85 30 -21 11
-65 27 -97 35 -71 18 -503 79 -712 100 -212 21 -250 29 -440 90 -200 64 -342
103 -560 150 -482 105 -582 145 -721 286 -67 67 -154 120 -304 184 -60 26
-138 67 -172 91 -35 25 -116 72 -180 106 -65 33 -140 76 -168 94 -27 18 -76
44 -107 57 -31 14 -89 45 -130 69 -176 106 -616 322 -874 428 -80 33 -176 76
-213 94 -106 54 -188 85 -293 111 -54 13 -142 44 -196 68 -106 49 -223 88
-407 137 -234 62 -373 102 -597 176 -125 40 -258 81 -295 89 -38 9 -130 36
-205 60 -148 48 -174 53 -413 90 -256 39 -346 45 -790 55 -238 5 -436 14 -457
20 -20 6 -47 24 -60 40 -59 76 -68 90 -81 127 -8 23 -32 63 -54 89 -23 27 -48
63 -56 79 -39 77 -276 254 -489 364 -447 231 -517 261 -638 280 -36 6 -85 15
-110 21 -25 5 -160 12 -300 15 -197 4 -268 2 -310 -9z"/>
</g>
</svg>
