<?xml version="1.0" standalone="no"?>
<!DOCTYPE svg PUBLIC "-//W3C//DTD SVG 20010904//EN"
 "http://www.w3.org/TR/2001/REC-SVG-20010904/DTD/svg10.dtd">
<svg version="1.0" xmlns="http://www.w3.org/2000/svg"
 width="1536.000000pt" height="1535.000000pt" viewBox="0 0 1536.000000 1535.000000"
 preserveAspectRatio="xMidYMid meet">
<metadata>
Created by potrace 1.16, written by Peter Selinger 2001-2019
</metadata>
<g transform="translate(0.000000,1535.000000) scale(0.100000,-0.100000)"
fill="#000000" stroke="none">
<path d="M9509 15340 c-88 -11 -270 -70 -377 -124 -50 -25 -127 -77 -182 -122
-180 -149 -279 -272 -374 -466 -90 -184 -108 -261 -155 -658 -14 -117 -34
-176 -81 -237 -30 -40 -36 -53 -23 -53 14 0 13 -4 -6 -24 -19 -21 -20 -25 -7
-28 13 -2 10 -10 -16 -42 -24 -30 -27 -36 -10 -27 32 17 37 13 15 -11 -37 -41
-37 -48 -2 -41 l32 6 -27 -45 c-31 -54 -32 -62 -6 -48 23 13 25 5 5 -30 -19
-33 -18 -41 1 -33 14 5 15 3 5 -15 -11 -20 -9 -22 15 -22 23 0 25 -2 13 -16
-11 -14 -10 -19 11 -34 l23 -17 -21 -31 c-28 -38 -28 -42 4 -42 l25 0 -21 -29
c-12 -18 -16 -32 -10 -36 5 -3 10 -14 10 -24 0 -10 9 -30 20 -44 11 -14 20
-39 20 -56 0 -28 2 -31 19 -21 16 8 21 6 26 -10 3 -11 11 -20 16 -20 5 0 9
-26 9 -57 0 -42 -7 -69 -23 -98 l-23 -40 -74 -3 c-173 -5 -282 -22 -387 -58
-154 -52 -441 -186 -716 -332 -133 -71 -307 -162 -387 -202 -464 -232 -998
-582 -1430 -939 -284 -235 -602 -567 -915 -956 -515 -639 -781 -928 -1185
-1287 -96 -86 -236 -218 -310 -293 -74 -75 -207 -201 -295 -278 -88 -78 -219
-199 -292 -268 -72 -70 -157 -143 -188 -164 -31 -20 -174 -92 -318 -160 -144
-67 -316 -148 -382 -180 -198 -94 -380 -170 -575 -240 -415 -148 -730 -281
-855 -360 -104 -66 -132 -129 -73 -166 36 -22 39 -22 318 7 115 12 554 70 750
100 27 4 17 -4 -45 -34 -138 -67 -407 -213 -477 -259 -88 -58 -168 -145 -168
-183 0 -38 33 -60 90 -60 56 0 242 46 530 130 208 61 218 63 316 61 92 -2 109
1 200 32 54 19 124 45 154 57 63 25 140 41 140 29 0 -12 -209 -325 -327 -487
-143 -198 -252 -339 -347 -447 -43 -49 -98 -120 -123 -157 -57 -88 -106 -192
-92 -197 6 -2 37 10 68 26 l58 28 -8 -30 c-11 -37 -12 -95 -1 -95 4 0 22 4 41
10 28 8 36 6 46 -7 10 -14 9 -24 -5 -52 -25 -49 -33 -81 -22 -81 21 0 100 32
137 57 36 23 33 19 -26 -43 -81 -86 -136 -164 -115 -164 48 0 121 26 171 61
55 38 55 38 -45 -72 -56 -61 -99 -113 -97 -115 9 -9 129 47 188 87 67 45 180
139 264 220 45 43 55 48 95 48 25 0 57 4 72 10 27 10 28 10 28 -25 0 -43 37
-84 77 -84 15 0 46 -12 68 -25 51 -32 67 -31 140 6 123 62 315 229 521 454 71
77 290 302 487 501 l357 362 68 7 c37 4 92 16 122 27 30 11 97 35 149 54 52
18 111 45 132 59 46 30 43 30 77 5 60 -45 195 -41 377 9 69 19 70 19 46 0 -82
-67 -130 -119 -125 -133 17 -45 145 -22 256 45 l68 41 80 -7 c72 -6 83 -5 117
15 27 16 62 25 118 30 55 4 100 15 142 34 38 18 69 26 80 21 16 -6 13 -11 -19
-37 -43 -34 -51 -73 -18 -83 11 -4 26 -20 33 -37 21 -52 115 -77 224 -59 126
21 387 82 481 112 107 34 151 36 209 10 25 -12 79 -22 135 -26 64 -5 105 -14
133 -29 50 -25 151 -26 246 -1 99 26 94 29 97 -50 6 -117 -17 -525 -44 -795
-36 -371 -88 -694 -140 -887 -40 -146 -45 -175 -47 -285 -2 -103 2 -135 20
-193 19 -60 24 -118 38 -405 9 -184 31 -625 50 -980 53 -997 58 -1171 51
-1620 -6 -404 -6 -406 -34 -510 -28 -103 -30 -108 -132 -240 -128 -167 -158
-231 -191 -403 -12 -65 -12 -69 13 -120 l26 -52 7 40 c16 93 28 118 65 130 32
11 38 19 75 111 39 97 76 161 134 236 l29 38 7 -48 c3 -26 16 -85 28 -132 18
-72 27 -92 64 -131 24 -26 66 -56 93 -68 28 -12 98 -60 157 -106 104 -81 110
-84 161 -85 29 0 96 -7 148 -15 86 -14 104 -14 158 -1 96 23 234 39 277 32 33
-5 45 -2 86 28 60 43 143 57 191 32 17 -9 34 -16 37 -16 3 0 -6 22 -19 49 -16
30 -39 58 -61 71 -39 24 -42 24 -205 0 -41 -6 -167 -11 -280 -12 -179 -1 -211
2 -254 18 -97 37 -48 53 170 53 109 1 152 -3 185 -16 33 -12 77 -16 169 -16
110 0 130 2 169 22 40 21 54 23 145 18 56 -3 135 -13 176 -21 215 -45 334 -41
600 17 85 19 179 37 207 41 29 4 74 16 99 26 27 12 68 20 101 20 38 0 53 4 51
12 -5 14 -128 47 -176 48 -18 0 -49 7 -70 16 l-37 17 45 9 c25 5 79 17 120 28
81 21 173 24 348 14 101 -6 115 -4 126 11 10 15 21 17 56 11 23 -4 55 -13 71
-22 19 -10 50 -14 87 -12 l56 3 -70 52 c-82 61 -147 91 -224 104 -30 5 -92 17
-137 26 -73 14 -107 15 -315 3 -284 -15 -306 -15 -388 -6 -59 7 -75 5 -178
-29 l-113 -36 -92 11 c-136 16 -296 64 -432 129 -117 56 -121 59 -156 117 -62
100 -197 575 -270 946 -78 397 -194 1066 -318 1828 -123 754 -115 698 -102
747 6 23 12 79 13 125 1 62 7 96 25 136 28 63 29 97 5 137 -41 68 -59 232 -43
400 12 121 110 583 224 1051 70 289 87 347 110 374 15 18 49 78 75 134 41 86
57 109 108 152 112 96 249 174 304 174 39 0 81 21 148 76 33 27 67 45 90 49
78 11 126 27 219 70 57 27 110 45 132 45 28 0 55 14 120 60 104 76 138 93 165
86 14 -4 54 14 126 56 199 116 235 136 327 181 137 69 244 142 388 264 133
113 367 347 419 418 16 22 53 60 83 85 63 52 151 161 246 307 41 63 89 121
124 150 42 37 64 65 89 119 18 40 37 75 43 78 24 15 65 103 72 153 5 35 21 78
47 121 30 51 41 82 45 127 5 56 52 178 116 304 13 24 27 71 31 103 6 41 20 78
44 116 20 31 46 77 58 102 29 62 89 255 95 310 3 25 14 57 24 71 10 14 23 46
28 71 6 25 16 58 22 74 14 35 26 120 41 279 18 191 14 277 -16 385 -15 52 -40
154 -55 225 -40 182 -46 203 -114 360 -58 134 -106 221 -172 312 -16 23 -51
70 -76 105 -25 35 -77 115 -115 178 -37 63 -118 192 -180 285 -165 253 -237
385 -242 449 -5 62 22 136 60 159 16 11 90 20 248 32 349 26 529 5 797 -96
141 -53 577 -244 828 -364 77 -37 349 -161 605 -277 833 -376 1285 -586 1970
-916 184 -88 360 -169 390 -179 30 -9 82 -18 115 -18 59 0 60 1 63 28 5 44
-39 102 -117 151 -109 70 -575 327 -1141 629 -289 154 -770 416 -1070 582
-300 166 -637 353 -750 415 -529 291 -779 462 -1006 687 -124 124 -286 328
-395 498 -90 142 -224 301 -332 392 -149 128 -451 297 -632 354 -80 26 -104
29 -215 28 -69 -1 -155 -5 -191 -9z m-2403 -8612 c-3 -13 -15 -84 -26 -158
-30 -193 -74 -404 -117 -557 -20 -73 -38 -132 -39 -130 -7 7 48 603 62 677 23
114 66 189 112 190 8 0 11 -8 8 -22z m34 -4338 c67 -415 130 -904 139 -1080 7
-155 -2 -227 -38 -298 -20 -39 -219 -266 -236 -269 -45 -9 -93 866 -110 1997
-4 223 -13 522 -21 665 -8 143 -14 271 -13 285 2 60 232 -1010 279 -1300z
m157 -1608 c33 -25 54 -95 60 -199 l6 -93 -26 0 c-33 0 -260 30 -265 34 -14
14 148 256 180 269 20 8 21 8 45 -11z m873 -278 c34 -14 32 -14 -45 -8 -91 7
-98 10 -143 57 l-34 35 94 -35 c51 -19 109 -41 128 -49z m-476 -14 c21 -4 46
-16 55 -24 14 -15 10 -16 -49 -10 -95 9 -133 18 -138 32 -5 15 73 16 132 2z"/>
</g>
</svg>
