<?xml version="1.0" standalone="no"?>
<!DOCTYPE svg PUBLIC "-//W3C//DTD SVG 20010904//EN"
 "http://www.w3.org/TR/2001/REC-SVG-20010904/DTD/svg10.dtd">
<svg version="1.0" xmlns="http://www.w3.org/2000/svg"
 width="1441.000000pt" height="1499.000000pt" viewBox="0 0 1441.000000 1499.000000"
 preserveAspectRatio="xMidYMid meet">
<metadata>
Created by potrace 1.16, written by Peter Selinger 2001-2019
</metadata>
<g transform="translate(0.000000,1499.000000) scale(0.100000,-0.100000)"
fill="#000000" stroke="none">
<path d="M9871 14969 c-97 -11 -251 -53 -313 -84 -125 -63 -460 -308 -551
-405 -117 -123 -226 -295 -271 -428 -13 -37 -33 -112 -45 -167 -12 -55 -28
-127 -36 -160 -7 -33 -25 -136 -40 -230 -15 -93 -40 -249 -57 -345 -16 -96
-34 -204 -39 -240 -5 -36 -11 -70 -14 -77 -5 -14 -31 -228 -40 -327 -3 -38
-10 -77 -15 -86 -6 -11 -77 -39 -202 -80 -311 -101 -805 -308 -1073 -451 -244
-129 -973 -615 -1084 -722 -26 -25 -112 -97 -192 -160 -106 -84 -205 -177
-355 -333 -725 -754 -742 -770 -919 -907 -93 -73 -194 -157 -225 -188 -30 -30
-100 -92 -155 -136 -113 -90 -130 -108 -143 -143 -5 -14 -46 -51 -93 -84 -159
-112 -267 -239 -277 -323 -4 -40 -11 -48 -124 -145 -112 -95 -264 -252 -316
-324 -23 -33 -139 -119 -389 -289 -174 -119 -319 -251 -354 -325 l-24 -50
-140 -44 c-77 -24 -187 -59 -245 -76 -58 -17 -168 -51 -245 -75 -77 -24 -176
-55 -220 -68 -44 -14 -145 -48 -225 -76 -80 -29 -176 -62 -215 -75 -38 -13
-95 -33 -125 -46 -30 -12 -200 -71 -378 -131 -177 -60 -354 -125 -393 -145
-39 -19 -105 -48 -147 -65 -69 -26 -182 -91 -182 -105 0 -15 43 -47 77 -56
115 -30 174 -37 376 -48 273 -15 476 -3 737 45 47 8 121 20 165 25 44 5 115
15 157 21 42 6 81 10 87 8 14 -5 -306 -200 -539 -329 -234 -130 -360 -214
-360 -240 0 -31 97 -90 161 -99 30 -4 64 -13 76 -19 35 -19 249 -25 468 -13
389 22 562 50 855 140 52 16 133 37 180 46 124 24 459 74 575 86 55 5 138 14
185 20 155 18 303 25 491 24 180 -1 187 -2 230 -27 24 -14 64 -28 87 -32 24
-4 61 -15 83 -26 21 -11 51 -20 67 -20 16 0 46 -7 65 -15 20 -8 63 -15 95 -15
44 0 66 -5 85 -20 19 -15 40 -20 91 -20 50 0 68 -4 72 -15 5 -11 23 -15 73
-15 36 0 82 -5 101 -10 19 -6 98 -14 176 -19 78 -5 150 -14 162 -20 11 -6 61
-11 111 -11 80 0 92 -2 101 -20 13 -24 39 -25 130 -5 36 7 67 10 70 5 10 -16
582 19 839 51 46 5 85 8 88 5 3 -2 -9 -91 -26 -198 -53 -323 -69 -445 -91
-648 -34 -334 -50 -450 -81 -605 -58 -291 -101 -468 -117 -493 -38 -59 -24
-346 24 -472 7 -19 20 -69 29 -110 10 -41 21 -88 25 -105 5 -16 13 -61 20
-100 6 -38 15 -92 20 -120 13 -72 27 -187 45 -365 8 -85 24 -240 35 -345 29
-270 59 -673 65 -860 3 -88 8 -212 10 -275 2 -63 7 -314 11 -558 7 -432 6
-443 -13 -465 -21 -24 -63 -117 -63 -140 0 -27 29 -42 59 -30 26 9 29 8 40
-21 15 -40 72 -83 135 -101 79 -23 276 -36 340 -23 90 19 446 -4 568 -37 53
-14 145 -30 205 -35 59 -5 139 -14 177 -20 84 -12 151 4 224 54 26 18 57 36
69 40 33 11 69 -3 82 -31 18 -38 93 -123 123 -139 32 -17 147 -19 182 -3 18 9
60 8 163 -1 156 -14 328 -14 421 1 34 5 121 32 193 59 177 66 219 74 389 74
127 0 169 -4 333 -37 103 -20 207 -37 231 -37 46 0 96 29 96 56 0 22 16 17 54
-17 38 -33 62 -35 80 -6 24 38 -61 121 -139 134 -29 5 -57 22 -105 64 -77 68
-93 75 -214 93 -50 8 -118 24 -151 36 -98 35 -112 35 -213 -4 -107 -42 -221
-70 -346 -85 l-89 -11 -34 30 c-18 16 -45 33 -58 36 -28 7 -27 7 -170 -31 -55
-15 -116 -31 -135 -36 -19 -4 -76 -9 -127 -9 l-92 0 -25 33 c-22 29 -106 205
-106 222 0 4 -17 46 -39 94 -21 47 -55 140 -76 206 -20 66 -61 185 -91 265
-51 135 -106 327 -204 705 -55 215 -153 567 -206 745 -24 80 -50 174 -58 210
-8 36 -30 128 -49 205 -50 203 -112 469 -146 632 -28 131 -30 153 -24 275 5
115 3 138 -12 173 -14 31 -19 67 -19 165 -1 82 -6 138 -15 161 -12 32 -12 51
3 150 9 63 23 161 31 219 8 58 23 139 34 180 11 41 32 140 46 220 26 141 70
336 119 530 75 291 106 400 198 682 l62 191 135 65 c75 36 170 84 211 107 41
23 138 75 215 115 104 54 195 114 350 230 116 86 239 176 275 200 321 215 767
631 1031 960 227 284 482 703 628 1035 75 169 154 403 211 622 74 286 81 329
90 528 11 263 -15 493 -81 700 -17 55 -45 156 -82 295 -8 30 -25 102 -37 160
-13 58 -50 186 -82 285 -54 163 -89 249 -223 545 -52 114 -69 201 -55 285 7
45 16 64 37 82 32 27 219 120 278 138 22 7 92 33 155 58 63 24 130 48 148 52
18 4 60 18 92 31 53 21 75 24 202 24 321 0 727 -54 1058 -142 41 -11 163 -42
270 -69 393 -101 578 -149 725 -188 249 -67 375 -92 625 -122 131 -15 151 -15
166 6 20 27 17 43 -11 69 -68 63 -236 129 -890 353 -137 47 -288 101 -335 120
-47 19 -173 66 -280 103 -179 62 -278 98 -615 224 -66 24 -182 72 -259 105
-76 34 -143 61 -148 61 -6 0 -61 25 -123 55 -72 35 -120 65 -133 82 -32 46
-55 95 -68 148 -84 329 -106 401 -141 467 -58 111 -174 221 -368 350 -179 119
-323 189 -435 212 -90 18 -584 29 -699 15z m-2195 -8531 c-3 -13 -62 -248
-131 -523 -69 -275 -141 -545 -160 -600 -76 -216 -258 -765 -281 -850 -13 -49
-24 -110 -24 -134 0 -50 21 -138 49 -202 13 -30 20 -79 25 -159 7 -139 12
-157 88 -330 33 -74 69 -157 79 -185 10 -27 31 -86 48 -130 34 -88 99 -299
136 -440 13 -49 46 -171 73 -270 27 -99 64 -243 82 -320 18 -77 52 -214 77
-304 74 -272 162 -673 223 -1016 40 -218 40 -220 25 -293 -16 -75 -24 -99 -65
-185 l-23 -49 -186 4 -186 3 -56 33 c-54 31 -58 32 -150 28 -52 -2 -114 -7
-139 -11 -25 -3 -97 -1 -160 5 -63 6 -140 14 -170 17 -98 9 -106 28 -126 276
-8 105 -21 237 -29 292 -7 55 -19 159 -25 230 -6 72 -13 137 -15 145 -5 15
-17 228 -36 605 -5 116 -12 224 -14 240 -2 17 -6 116 -10 220 -3 105 -8 255
-10 335 -3 80 -9 264 -15 409 -11 289 -3 429 29 524 11 31 25 98 32 151 14
108 5 169 -38 266 -64 143 -84 253 -84 460 0 225 29 475 125 1100 19 124 42
277 51 340 22 158 15 146 92 154 36 4 102 15 147 25 45 11 108 22 141 25 59 7
113 18 435 95 200 47 184 46 176 19z"/>
</g>
</svg>
